REM DIRINDEX 1\2,1\4,1\3\5,1\3\6,1\3\7
REM DIRNAME cjc082,folder01,folder02,folder03,folder04,folder05,folder06
TITLE ""
FILE "CD3Track28.mp3" MP3
  TRACK 01 AUDIO
    TITLE "0:"
    INDEX 01 00:00:00
  TRACK 02 AUDIO
    TITLE "5:cjc082_2834"
    INDEX 01 00:00:27
  TRACK 03 AUDIO
    TITLE "0:"
    INDEX 01 00:01:54
  TRACK 04 AUDIO
    TITLE "6:cjc082_2835"
    INDEX 01 00:02:24
  TRACK 05 AUDIO
    TITLE "0:"
    INDEX 01 00:03:41
  TRACK 06 AUDIO
    TITLE "5:cjc082_2836"
    INDEX 01 00:04:15
  TRACK 07 AUDIO
    TITLE "0:"
    INDEX 01 00:05:20
  TRACK 08 AUDIO
    TITLE "6:cjc082_2837"
    INDEX 01 00:05:71
  TRACK 09 AUDIO
    TITLE "0:"
    INDEX 01 00:09:73
  TRACK 10 AUDIO
    TITLE "5:cjc082_2838"
    INDEX 01 00:10:47
  TRACK 11 AUDIO
    TITLE "0:"
    INDEX 01 00:11:66
  TRACK 12 AUDIO
    TITLE "6:cjc082_2839"
    INDEX 01 00:12:40
  TRACK 13 AUDIO
    TITLE "0:"
    INDEX 01 00:13:57
  TRACK 14 AUDIO
    TITLE "5:cjc082_2840"
    INDEX 01 00:14:27
  TRACK 15 AUDIO
    TITLE "0:"
    INDEX 01 00:15:52
  TRACK 16 AUDIO
    TITLE "6:cjc082_2841"
    INDEX 01 00:16:30
  TRACK 17 AUDIO
    TITLE "0:"
    INDEX 01 00:17:25
  TRACK 18 AUDIO
    TITLE "5:cjc082_2842"
    INDEX 01 00:18:01
  TRACK 19 AUDIO
    TITLE "0:"
    INDEX 01 00:19:11
  TRACK 20 AUDIO
    TITLE "6:cjc082_2843"
    INDEX 01 00:19:60
  TRACK 21 AUDIO
    TITLE "0:"
    INDEX 01 00:21:04
  TRACK 22 AUDIO
    TITLE "5:cjc082_2844"
    INDEX 01 00:21:55
  TRACK 23 AUDIO
    TITLE "0:"
    INDEX 01 00:22:62
  TRACK 24 AUDIO
    TITLE "6:cjc082_2845"
    INDEX 01 00:23:36
  TRACK 25 AUDIO
    TITLE "0:"
    INDEX 01 00:25:21
  TRACK 26 AUDIO
    TITLE "5:cjc082_2846"
    INDEX 01 00:25:68
  TRACK 27 AUDIO
    TITLE "0:"
    INDEX 01 00:27:67
  TRACK 28 AUDIO
    TITLE "6:cjc082_2847"
    INDEX 01 00:28:39
  TRACK 29 AUDIO
    TITLE "0:"
    INDEX 01 00:30:20
  TRACK 30 AUDIO
    TITLE "5:cjc082_2848"
    INDEX 01 00:30:67
  TRACK 31 AUDIO
    TITLE "0:"
    INDEX 01 00:32:01
  TRACK 32 AUDIO
    TITLE "6:cjc082_2849"
    INDEX 01 00:32:52
  TRACK 33 AUDIO
    TITLE "0:"
    INDEX 01 00:34:12
  TRACK 34 AUDIO
    TITLE "5:cjc082_2850"
    INDEX 01 00:34:57
  TRACK 35 AUDIO
    TITLE "0:"
    INDEX 01 00:36:54
  TRACK 36 AUDIO
    TITLE "6:cjc082_2851"
    INDEX 01 00:37:30
  TRACK 37 AUDIO
    TITLE "0:"
    INDEX 01 00:39:11
  TRACK 38 AUDIO
    TITLE "5:cjc082_2852"
    INDEX 01 00:39:58
  TRACK 39 AUDIO
    TITLE "0:"
    INDEX 01 00:41:40
  TRACK 40 AUDIO
    TITLE "6:cjc082_2853"
    INDEX 01 00:42:16
  TRACK 41 AUDIO
    TITLE "0:"
    INDEX 01 00:44:52
  TRACK 42 AUDIO
    TITLE "5:cjc082_2854"
    INDEX 01 00:45:26
  TRACK 43 AUDIO
    TITLE "0:"
    INDEX 01 00:46:43
  TRACK 44 AUDIO
    TITLE "6:cjc082_2855"
    INDEX 01 00:47:19
  TRACK 45 AUDIO
    TITLE "0:"
    INDEX 01 00:51:48
  TRACK 46 AUDIO
    TITLE "5:cjc082_2856"
    INDEX 01 00:52:26
  TRACK 47 AUDIO
    TITLE "0:"
    INDEX 01 00:54:36
  TRACK 48 AUDIO
    TITLE "6:cjc082_2857"
    INDEX 01 00:55:06
  TRACK 49 AUDIO
    TITLE "0:"
    INDEX 01 00:57:33
  TRACK 50 AUDIO
    TITLE "5:cjc082_2858"
    INDEX 01 00:58:07
  TRACK 51 AUDIO
    TITLE "0:"
    INDEX 01 00:59:53
  TRACK 52 AUDIO
    TITLE "6:cjc082_2859"
    INDEX 01 01:00:31
  TRACK 53 AUDIO
    TITLE "0:"
    INDEX 01 01:01:50
  TRACK 54 AUDIO
    TITLE "5:cjc082_2860"
    INDEX 01 01:02:26
  TRACK 55 AUDIO
    TITLE "0:"
    INDEX 01 01:03:55
  TRACK 56 AUDIO
    TITLE "6:cjc082_2861"
    INDEX 01 01:04:31
  TRACK 57 AUDIO
    TITLE "0:"
    INDEX 01 01:06:12
  TRACK 58 AUDIO
    TITLE "5:cjc082_2862"
    INDEX 01 01:06:57
  TRACK 59 AUDIO
    TITLE "0:"
    INDEX 01 01:08:21
  TRACK 60 AUDIO
    TITLE "6:cjc082_2863"
    INDEX 01 01:08:68
  TRACK 61 AUDIO
    TITLE "0:"
    INDEX 01 01:10:33
  TRACK 62 AUDIO
    TITLE "7:cjc082_2864"
    INDEX 01 01:11:72
  TRACK 63 AUDIO
    TITLE "0:"
    INDEX 01 01:22:37
